<svg width="32" height="32" viewBox="0 0 32 32" fill="none" xmlns="http://www.w3.org/2000/svg">
<path d="M2.22266 7.55469H29.7782V24.4436H2.22266V7.55469Z" fill="white"/>
<path d="M2.22266 7.55469H29.7782V9.77691H2.22266V7.55469Z" fill="#D22F27"/>
<path d="M2.22266 11.5547H29.7782V13.3325H2.22266V11.5547Z" fill="#D22F27"/>
<path d="M2.22266 15.1094H29.7782V16.8872H2.22266V15.1094Z" fill="#D22F27"/>
<path d="M2.22266 7.55469H16.4449V16.888H2.22266V7.55469Z" fill="#1E50A0"/>
<path d="M2.22266 18.6641H29.7782V20.4418H2.22266V18.6641Z" fill="#D22F27"/>
<path d="M4.22309 10.5556C4.65265 10.5556 5.00087 10.2073 5.00087 9.77778C5.00087 9.34822 4.65265 9 4.22309 9C3.79354 9 3.44531 9.34822 3.44531 9.77778C3.44531 10.2073 3.79354 10.5556 4.22309 10.5556Z" fill="white"/>
<path d="M7.77778 10.5556C8.20733 10.5556 8.55556 10.2073 8.55556 9.77778C8.55556 9.34822 8.20733 9 7.77778 9C7.34822 9 7 9.34822 7 9.77778C7 10.2073 7.34822 10.5556 7.77778 10.5556Z" fill="white"/>
<path d="M11.3325 10.5556C11.762 10.5556 12.1102 10.2073 12.1102 9.77778C12.1102 9.34822 11.762 9 11.3325 9C10.9029 9 10.5547 9.34822 10.5547 9.77778C10.5547 10.2073 10.9029 10.5556 11.3325 10.5556Z" fill="white"/>
<path d="M14.8889 10.5556C15.3184 10.5556 15.6666 10.2073 15.6666 9.77778C15.6666 9.34822 15.3184 9 14.8889 9C14.4593 9 14.1111 9.34822 14.1111 9.77778C14.1111 10.2073 14.4593 10.5556 14.8889 10.5556Z" fill="white"/>
<path d="M13.1098 12.3368C13.5394 12.3368 13.8876 11.9886 13.8876 11.559C13.8876 11.1295 13.5394 10.7812 13.1098 10.7812C12.6803 10.7812 12.332 11.1295 12.332 11.559C12.332 11.9886 12.6803 12.3368 13.1098 12.3368Z" fill="white"/>
<path d="M9.55512 12.3368C9.98468 12.3368 10.3329 11.9886 10.3329 11.559C10.3329 11.1295 9.98468 10.7812 9.55512 10.7812C9.12557 10.7812 8.77734 11.1295 8.77734 11.559C8.77734 11.9886 9.12557 12.3368 9.55512 12.3368Z" fill="white"/>
<path d="M6.00043 12.3368C6.42999 12.3368 6.77821 11.9886 6.77821 11.559C6.77821 11.1295 6.42999 10.7812 6.00043 10.7812C5.57088 10.7812 5.22266 11.1295 5.22266 11.559C5.22266 11.9886 5.57088 12.3368 6.00043 12.3368Z" fill="white"/>
<path d="M4.22309 14.1102C4.65265 14.1102 5.00087 13.762 5.00087 13.3325C5.00087 12.9029 4.65265 12.5547 4.22309 12.5547C3.79354 12.5547 3.44531 12.9029 3.44531 13.3325C3.44531 13.762 3.79354 14.1102 4.22309 14.1102Z" fill="white"/>
<path d="M7.77778 14.1102C8.20733 14.1102 8.55556 13.762 8.55556 13.3325C8.55556 12.9029 8.20733 12.5547 7.77778 12.5547C7.34822 12.5547 7 12.9029 7 13.3325C7 13.762 7.34822 14.1102 7.77778 14.1102Z" fill="white"/>
<path d="M11.3325 14.1102C11.762 14.1102 12.1102 13.762 12.1102 13.3325C12.1102 12.9029 11.762 12.5547 11.3325 12.5547C10.9029 12.5547 10.5547 12.9029 10.5547 13.3325C10.5547 13.762 10.9029 14.1102 11.3325 14.1102Z" fill="white"/>
<path d="M14.8891 14.1102C15.3187 14.1102 15.6669 13.762 15.6669 13.3325C15.6669 12.9029 15.3187 12.5547 14.8891 12.5547C14.4596 12.5547 14.1113 12.9029 14.1113 13.3325C14.1113 13.762 14.4596 14.1102 14.8891 14.1102Z" fill="white"/>
<path d="M13.1098 15.8915C13.5394 15.8915 13.8876 15.5433 13.8876 15.1137C13.8876 14.6842 13.5394 14.3359 13.1098 14.3359C12.6803 14.3359 12.332 14.6842 12.332 15.1137C12.332 15.5433 12.6803 15.8915 13.1098 15.8915Z" fill="white"/>
<path d="M9.55512 15.8915C9.98468 15.8915 10.3329 15.5433 10.3329 15.1137C10.3329 14.6842 9.98468 14.3359 9.55512 14.3359C9.12557 14.3359 8.77734 14.6842 8.77734 15.1137C8.77734 15.5433 9.12557 15.8915 9.55512 15.8915Z" fill="white"/>
<path d="M6.00043 15.8915C6.42999 15.8915 6.77821 15.5433 6.77821 15.1137C6.77821 14.6842 6.42999 14.3359 6.00043 14.3359C5.57088 14.3359 5.22266 14.6842 5.22266 15.1137C5.22266 15.5433 5.57088 15.8915 6.00043 15.8915Z" fill="white"/>
<path d="M2.22266 22.2188H29.7782V24.441H2.22266V22.2188Z" fill="#D22F27"/>
</svg>
