<svg width="130" height="56" viewBox="0 0 130 56" fill="none" xmlns="http://www.w3.org/2000/svg">
<g clip-path="url(#clip0_121_12)" filter="url(#filter0_d_121_12)">
<path d="M54.6604 0.0282924L52.7173 1.57257L53.8995 3.06147L55.8426 1.51719L54.6604 0.0282924Z" fill="#D81923"/>
<path d="M55.22 11.3623L54.0374 9.87357L51.8218 11.6346C51.4706 11.1088 51.0955 10.601 50.7025 10.1082L52.0064 9.07172L50.8242 7.58299L49.4532 8.6725C49.0773 8.27542 48.6911 7.8886 48.2869 7.52016L52.5195 4.15588L51.3373 2.66716L46.795 6.27763C43.0414 3.40618 38.3521 1.6969 33.262 1.6969C20.9424 1.6969 10.955 11.6884 10.955 24.0141C10.955 27.2874 11.665 30.393 12.9305 33.194L7.72681 37.3302L8.90896 38.8189L13.8055 34.9272C14.0738 35.405 14.3579 35.8726 14.6595 36.3279L12.6293 37.9414L13.8114 39.4301L15.7788 37.8662C16.1715 38.3615 16.5837 38.8394 17.0161 39.2989L14.1327 41.5903L15.3149 43.0791L18.385 40.6389C22.3326 44.1767 27.5448 46.3309 33.2616 46.3309C45.5812 46.3309 55.5686 36.339 55.5686 24.0137C55.5686 20.119 54.5693 16.4589 52.8164 13.272L55.22 11.3623Z" fill="#D81923"/>
<path d="M56.8732 7.62203L55.2148 8.94L56.3971 10.4289L58.0554 9.11093L56.8732 7.62203Z" fill="#D81923"/>
<path d="M57.4006 2.3591L52.2041 6.48895L53.3861 7.97759L58.5826 3.84773L57.4006 2.3591Z" fill="#D81923"/>
<path d="M59.4556 0.722615L58.5598 1.43463L59.7422 2.92353L60.638 2.21151L59.4556 0.722615Z" fill="#D81923"/>
<path d="M6.34702 38.4267L4.40356 39.9706L5.58611 41.4592L7.52956 39.9154L6.34702 38.4267Z" fill="#D81923"/>
<path d="M12.9555 42.526L11.2971 43.8439L12.4793 45.3328L14.1377 44.0149L12.9555 42.526Z" fill="#D81923"/>
<path d="M11.2487 39.0379L6.05225 43.1677L7.23452 44.6567L12.431 40.5268L11.2487 39.0379Z" fill="#D81923"/>
<path d="M4.8947 44.0882L3.99878 44.7999L5.18132 46.2885L6.07725 45.5768L4.8947 44.0882Z" fill="#D81923"/>
<path d="M10.6521 32.0322C9.7639 29.5249 9.28027 26.8261 9.28027 24.0141C9.28027 10.7634 20.017 0.0213623 33.2621 0.0213623C37.8142 0.0213623 42.0703 1.29039 45.6958 3.49378" stroke="url(#paint0_linear_121_12)" stroke-miterlimit="10"/>
<path d="M55.0521 13.9803C56.459 17.033 57.2434 20.4319 57.2434 24.0141C57.2434 37.2648 46.5062 48.0069 33.2616 48.0069C27.7319 48.0069 22.6393 46.1343 18.5828 42.9889" stroke="url(#paint1_linear_121_12)" stroke-miterlimit="10"/>
<path d="M73.1531 10.9528C76.3449 10.9528 78.1735 12.5312 78.1735 15.3121C78.1735 18.2361 76.3445 19.9223 73.1531 19.9223H70.6606V23.5101H67.8276V10.9528H73.1531ZM70.661 17.5544H73.01C74.5877 17.5544 75.4845 16.8367 75.4845 15.4018C75.4845 14.0024 74.5882 13.3032 73.01 13.3032H70.661V17.5544Z" fill="#59595B"/>
<path d="M85.1668 21.07L84.1807 23.5098H81.2581L86.7091 10.9524H89.6318L94.9931 23.5098H91.9628L90.9767 21.07H85.1668ZM88.0895 13.9127L86.099 18.7923H90.0616L88.0895 13.9127Z" fill="#59595B"/>
<path d="M104.98 23.5098H102.147V19.5274L97.5032 10.9528H100.354L103.563 16.5854L106.701 10.9528H109.552L104.98 19.4556V23.5098Z" fill="#59595B"/>
<path d="M68.8965 37.7029H61.8203C62.183 40.2444 63.9671 41.666 66.9611 41.666C69.2592 41.666 70.7712 41.0608 71.2856 40.7282L72.2533 42.9974C71.8299 43.2393 69.683 44.2981 66.5681 44.2981C62.0625 44.2981 58.5242 41.7267 58.5242 36.4625C58.5242 31.5313 61.8203 28.1426 66.4771 28.1426C70.8314 28.1426 73.1603 30.5931 73.1603 33.9514C73.1603 36.2813 72.011 37.7029 68.8965 37.7029ZM66.4472 30.4422C63.3626 30.4422 61.8207 33.1952 61.7297 35.4944H68.1104C69.5617 35.4944 70.1667 35.0708 70.1667 33.6487C70.1667 32.1062 69.1383 30.4422 66.4472 30.4422Z" fill="#D81923"/>
<path d="M78.5127 31.8642C78.059 31.5919 77.6962 31.0474 77.6962 30.3516C77.6962 29.6557 78.1196 29.2321 78.7545 28.8992C79.45 28.5666 80.6292 28.2033 82.4436 28.2033C87.282 28.2033 90.2757 29.8976 90.2757 34.6775V43.7232C89.5498 43.8745 87.191 44.2374 83.4716 44.2374C77.4237 44.2374 76.2744 41.8775 76.2744 39.3664C76.2744 36.2201 78.0585 34.3441 83.29 34.3441C85.1044 34.3441 86.7373 34.4348 87.2214 34.5258V34.3745C87.2214 34.0415 87.191 33.7389 87.1308 33.4671C86.798 31.5612 85.4373 30.5627 82.6252 30.5627C80.2665 30.5631 79.0873 31.471 78.5127 31.8642ZM87.1915 36.7048C86.98 36.6441 85.0446 36.4629 83.6232 36.4629C80.5993 36.4629 79.3898 37.3703 79.3898 39.3066C79.3898 40.9402 80.2669 42.0596 83.5933 42.0596C85.6496 42.0596 86.7988 41.8476 87.1919 41.7267V36.7048H87.1915Z" fill="#D81923"/>
<path d="M97.6543 36.2205C97.6543 39.9721 99.9225 41.666 102.704 41.666C104.7 41.666 106.152 40.7585 106.454 40.5465L107.784 42.6943C107.029 43.2085 105.245 44.2374 102.341 44.2374C97.8961 44.2374 94.4185 41.3633 94.4185 36.2808C94.4185 31.1983 97.9564 28.2029 102.462 28.2029C105.214 28.2029 106.545 28.9893 106.998 29.292C107.391 29.6249 107.724 30.0481 107.724 30.6533C107.724 31.1372 107.392 31.8937 106.756 32.3776C106.272 31.8933 104.942 30.7738 102.674 30.7738C99.8922 30.7751 97.6543 32.6203 97.6543 36.2205Z" fill="#D81923"/>
<path d="M114.377 30.4422C114.861 29.716 116.312 28.1431 119.487 28.1431C123.146 28.1431 125.565 30.2306 125.565 34.3147V43.8142H122.451V34.9498C122.451 32.2874 121.422 30.7747 118.641 30.7747C115.828 30.7747 114.377 32.9225 114.377 35.585V43.8138H111.262V22.9391C111.262 22.0014 111.807 21.5171 112.926 21.5171C113.561 21.5171 114.165 21.7291 114.377 21.8197V30.4422H114.377Z" fill="#D81923"/>
<path d="M27.3481 26.4941C27.3481 26.6616 27.3481 26.8292 27.3481 26.9967C27.3477 30.2165 27.3511 33.4359 27.3443 36.6557C27.3417 37.8769 26.5171 38.8864 25.3405 39.1433C24.1815 39.3959 22.966 38.7933 22.4973 37.6837C22.3516 37.3392 22.2658 36.9412 22.2649 36.5677C22.2504 30.4277 22.2572 24.2873 22.2461 18.1473C22.2452 17.7198 22.3777 17.5809 22.8083 17.5814C28.6037 17.5912 34.3996 17.5831 40.1954 17.5873C41.5536 17.5886 42.6571 18.5491 42.8041 19.8211C42.9544 21.1247 42.1551 22.3194 40.8862 22.6207C40.4902 22.7148 40.0672 22.7195 39.6566 22.7207C37.0364 22.7284 34.4162 22.7229 31.7964 22.7246C31.6046 22.7246 31.4124 22.7472 31.1043 22.7665C31.3047 22.9887 31.4256 23.1362 31.5602 23.27C35.3822 27.0822 39.2063 30.8914 43.0271 34.7049C43.9384 35.6145 44.14 36.7232 43.6055 37.7862C42.8707 39.2485 40.987 39.6631 39.7113 38.6377C39.5122 38.4778 39.3324 38.2927 39.1512 38.1115C35.3749 34.3343 31.5999 30.5559 27.824 26.7783C27.7065 26.6608 27.5814 26.5505 27.46 26.4364C27.4229 26.456 27.3853 26.4748 27.3481 26.4941Z" fill="white"/>
<path d="M35.2395 24.7224C35.5638 24.707 35.7453 24.6916 35.9269 24.6912C37.3509 24.6878 38.7748 24.7053 40.1984 24.6809C42.3627 24.6442 44.2554 23.0717 44.6591 21.008C45.1927 18.2802 43.0779 15.6746 40.2971 15.6669C35.6129 15.6537 30.9283 15.6614 26.2441 15.6601C25.091 15.6597 23.9375 15.6473 22.7844 15.6652C22.3764 15.6716 22.235 15.5233 22.2401 15.1181C22.2572 13.7794 22.2547 12.4403 22.2418 11.1012C22.238 10.7233 22.3623 10.572 22.7579 10.5729C28.6665 10.5823 34.5786 10.4668 40.4833 10.6182C45.0133 10.7344 49.2621 14.182 49.7838 19.1214C50.3814 24.7809 46.2309 29.0847 41.5591 29.6946C41.4745 29.7057 41.3912 29.7258 41.307 29.7395C40.6735 29.8408 40.1616 29.7412 39.669 29.2163C38.3741 27.8353 37.0018 26.5274 35.6616 25.1887C35.545 25.072 35.4399 24.9442 35.2395 24.7224Z" fill="white"/>
</g>
<defs>
<filter id="filter0_d_121_12" x="0" y="0" width="131" height="56" filterUnits="userSpaceOnUse" color-interpolation-filters="sRGB">
<feFlood flood-opacity="0" result="BackgroundImageFix"/>
<feColorMatrix in="SourceAlpha" type="matrix" values="0 0 0 0 0 0 0 0 0 0 0 0 0 0 0 0 0 0 127 0" result="hardAlpha"/>
<feOffset dy="4"/>
<feGaussianBlur stdDeviation="2"/>
<feComposite in2="hardAlpha" operator="out"/>
<feColorMatrix type="matrix" values="0 0 0 0 0 0 0 0 0 0 0 0 0 0 0 0 0 0 0.25 0"/>
<feBlend mode="normal" in2="BackgroundImageFix" result="effect1_dropShadow_121_12"/>
<feBlend mode="normal" in="SourceGraphic" in2="effect1_dropShadow_121_12" result="shape"/>
</filter>
<linearGradient id="paint0_linear_121_12" x1="37.3165" y1="-3.0399" x2="10.2851" y2="31.7699" gradientUnits="userSpaceOnUse">
<stop stop-color="#85A555"/>
<stop offset="1" stop-color="#5B824E"/>
</linearGradient>
<linearGradient id="paint1_linear_121_12" x1="55.8182" y1="14.5512" x2="28.0222" y2="50.3456" gradientUnits="userSpaceOnUse">
<stop stop-color="#85A555"/>
<stop offset="1" stop-color="#5B824E"/>
</linearGradient>
<clipPath id="clip0_121_12">
<rect width="123" height="48" fill="white" transform="translate(4)"/>
</clipPath>
</defs>
</svg>
